<svg width="1em" height="1em" xmlns="http://www.w3.org/2000/svg" version="1.1" id="Layer_1" x="0" y="0" viewBox="0 0 100 100" xml:space="preserve">
<circle cx="50" cy="50" r="40" fill="#333"/>
<path stroke-linejoin="round" fill="none" stroke="#fff" stroke-width="3.5" stroke-miterlimit="10" d="M29 30.034v39.932h29.005V30.034z"/>
<g>
<path stroke-linecap="round" fill="none" stroke="#fff" stroke-linejoin="round" stroke-width="3.5" stroke-miterlimit="10" d="M35.446 36.353H51.56"/>
<path stroke-linecap="round" fill="none" stroke="#fff" stroke-linejoin="round" stroke-width="3.5" stroke-miterlimit="10" d="M35.446 43.023H51.56"/>
<path stroke-linecap="round" fill="none" stroke="#fff" stroke-linejoin="round" stroke-width="3.5" stroke-miterlimit="10" d="M35.446 49.693H51.56"/>
<path stroke-linecap="round" fill="none" stroke="#fff" stroke-linejoin="round" stroke-width="3.5" stroke-miterlimit="10" d="M35.446 56.363H51.56"/>
</g>
<path stroke-linecap="round" fill="none" stroke="#fff" stroke-linejoin="round" stroke-width="3.5" stroke-miterlimit="10" d="M35.446 63.21h2.767"/>
<path d="M70.19 32.352a1.808 1.808 0 0 0-2.557 0l-2.9 2.9-18.666 18.667-.501.501-.207.74-2.221 7.931a.482.482 0 0 0 .594.594l7.931-2.221.74-.207.501-.501 18.667-18.667 2.9-2.9a1.808 1.808 0 0 0 0-2.557l-4.281-4.28z" fill="#feffff" stroke="#333" stroke-width="3.5" stroke-miterlimit="10"/>
</svg>