<svg width="1em" height="1em" fill="currentColor" version="1.1" xmlns="http://www.w3.org/2000/svg"
	xmlns:xlink="http://www.w3.org/1999/xlink" x="0px" y="0px" viewBox="0 0 512 512">
	<path class="st0" d="M316.1,284.2c22.5,0,44.6,3.7,65.4,10.9c9.3,3.2,14.2,13.2,10.9,22.3c-3.3,9.1-13.5,13.9-22.8,10.7
		c-17-5.9-35-8.9-53.5-8.9c-88.7,0-160.7,70.6-160.7,157.7c0,5.3,0.3,10.6,0.8,15.8c1,9.6-6.2,18.2-16,19.2
		c-9.8,1-18.5-6.1-19.5-15.7c-0.6-6.4-1-12.8-1-19.3C119.7,370.5,207.6,284.2,316.1,284.2z M422.2,319.2c9.8,0,17.8,8,17.9,17.8
		l0,57.8l54.1-0.1c8.9,0.1,16.3,6.8,17.6,15.3l0.2,2.6c0.1,9.8-7.8,17.6-17.6,17.4l-54.3,0.1l0,60.7c0.1,9.8-7.7,17.6-17.4,17.6
		c-9.8,0-17.8-8-17.9-17.8l0-60.4l-64.2,0.2c-8.9-0.1-16.3-6.8-17.6-15.3l-0.2-2.6c-0.1-9.8,7.8-17.6,17.6-17.4l64.4-0.2l0-58.1
		C404.6,327.1,412.4,319.2,422.2,319.2z M196.4,210.4c9.9,0,17.9,7.8,17.9,17.5s-8,17.5-17.9,17.5c-88.7,0-160.7,70.6-160.7,157.7
		c0,5.3,0.3,10.6,0.8,15.8c1,9.6-6.2,18.2-16,19.2c-9.8,1-18.6-6.1-19.5-15.7c-0.6-6.4-1-12.8-1-19.3
		C0,296.7,87.9,210.4,196.4,210.4z M322.8,75.9c55.9,0,101.2,44.4,101.2,99.3s-45.3,99.3-101.2,99.3S221.6,230,221.6,175.2
		S266.9,75.9,322.8,75.9z M322.8,111c-36.1,0-65.4,28.8-65.4,64.2s29.3,64.2,65.4,64.2s65.4-28.8,65.4-64.2S358.9,111,322.8,111z
		 M205.4,0c31.9,0,61.3,14.6,80.3,38.9c6,7.7,4.5,18.7-3.3,24.6c-7.8,5.9-19,4.4-25-3.2c-12.3-15.8-31.3-25.2-52-25.2
		C169.3,35,140,63.8,140,99.3c0,31,22.6,57.5,53.3,63.1c9.7,1.8,16.1,10.9,14.2,20.5c-1.8,9.5-11.1,15.8-20.8,14
		c-47.5-8.7-82.4-49.6-82.4-97.6C104.3,44.4,149.6,0,205.4,0z" />
</svg>