<svg width="1em" height="1em" viewBox="0 0 36 36" fill="none" xmlns="http://www.w3.org/2000/svg"><circle cx="18" cy="18" r="18" fill="#F0F5F7"></circle><path opacity="0.7" d="M9.01206 13.2012L8.99805 25.4799C8.99805 25.4799 8.97477 25.8932 9.66064 26.8831C10.3935 27.8497 11.6485 27.99 13.4413 28H25.5174C25.7163 28 25.9071 27.921 26.0477 27.7804C26.1884 27.6397 26.2674 27.4489 26.2674 27.25C26.2674 27.0511 26.1884 26.8604 26.0477 26.7197C25.9071 26.5791 25.7163 26.5 25.5174 26.5H12.4998C12.2345 26.5 11.9802 26.3947 11.7927 26.2071C11.6051 26.0196 11.4998 25.7653 11.4998 25.5H25.1842C25.3832 25.5 26.095 25.5198 26.5179 25.1132C26.957 24.6903 26.957 23.9947 26.957 23.7958L27.0058 12.5734C27.0058 12.2451 26.9689 10.3555 26.6332 9.6381C26.5076 9.33479 26.3059 9.04751 26.0738 8.81536C25.8416 8.58322 25.3629 8.36121 25.0379 8.24709C24.3098 8.06502 23.2355 8.00004 22.9072 8.00004L13.1571 8C12.5092 8.00103 10.7076 8.04643 9.85999 8.88664C8.83077 9.86309 9.01206 12.5381 9.01206 13.2012Z" fill="#A2ACC0"></path><path d="M18.2979 14.0179C18.2932 14.2136 18.2121 14.3998 18.0719 14.5366C17.9318 14.6734 17.7437 14.7499 17.5479 14.7499C16.7979 14.7499 16.7979 13.9989 16.7979 13.9989V13.9899C16.7975 13.9451 16.8002 13.9003 16.8059 13.8559C16.8491 13.4693 16.994 13.1012 17.2259 12.7889C17.6799 12.1759 18.4959 11.7269 19.8109 11.7499C20.7609 11.7669 21.6039 12.1649 22.1319 12.8199C22.6689 13.4869 22.8499 14.3899 22.4939 15.2789C22.1319 16.1839 21.3129 16.5439 20.8419 16.7499L20.7919 16.7729C20.5119 16.8959 20.3789 16.9599 20.2989 17.0239L20.2979 17.0249V17.7489C20.298 17.9478 20.2191 18.1386 20.0786 18.2793C19.938 18.4201 19.7473 18.4992 19.5484 18.4994C19.3495 18.4995 19.1586 18.4206 19.0179 18.2801C18.8772 18.1395 18.798 17.9488 18.7979 17.7499V16.9999C18.7979 16.4769 19.0499 16.1029 19.3609 15.8529C19.6109 15.6529 19.9259 15.5149 20.1469 15.4169L20.1849 15.3999C20.7269 15.1609 20.9849 15.0129 21.1019 14.7209C21.1706 14.5639 21.194 14.3908 21.1697 14.2212C21.1453 14.0516 21.074 13.8922 20.9639 13.7609C20.7419 13.4859 20.3349 13.2589 19.7849 13.2499C18.8499 13.2339 18.5399 13.5349 18.4319 13.6819C18.3595 13.7785 18.3133 13.8922 18.2979 14.0119V14.0179ZM19.5479 21.4999C19.8131 21.4999 20.0675 21.3945 20.255 21.207C20.4425 21.0194 20.5479 20.7651 20.5479 20.4999C20.5479 20.2347 20.4425 19.9803 20.255 19.7928C20.0675 19.6052 19.8131 19.4999 19.5479 19.4999C19.2827 19.4999 19.0283 19.6052 18.8408 19.7928C18.6532 19.9803 18.5479 20.2347 18.5479 20.4999C18.5479 20.7651 18.6532 21.0194 18.8408 21.207C19.0283 21.3945 19.2827 21.4999 19.5479 21.4999Z" fill="#586379"></path><path fill-rule="evenodd" clip-rule="evenodd" d="M13.0088 8.01221V25.4978H11.5088V8.01221H13.0088Z" fill="#586379"></path></svg>