<svg width="1em" height="1em" viewBox="0 0 36 36" fill="none" xmlns="http://www.w3.org/2000/svg">
    <circle cx="18" cy="18" r="18" fill="#F0F5F7"></circle>
    <path
        d="M9 14C9 11.1716 9 9.75736 9.87868 8.87868C10.7574 8 12.1716 8 15 8H21C23.8284 8 25.2426 8 26.1213 8.87868C27 9.75736 27 11.1716 27 14V22C27 24.8284 27 26.2426 26.1213 27.1213C25.2426 28 23.8284 28 21 28H15C12.1716 28 10.7574 28 9.87868 27.1213C9 26.2426 9 24.8284 9 22V14Z"
        fill="#A2ACC0"></path>
    <path fill-rule="evenodd" clip-rule="evenodd" d="M14.75 8.01233V28.0112H13.25V8.01233H14.75Z" fill="#586379"></path>
    <path fill-rule="evenodd" clip-rule="evenodd"
        d="M7.25 14C7.25 13.5858 7.58579 13.25 8 13.25H10C10.4142 13.25 10.75 13.5858 10.75 14C10.75 14.4142 10.4142 14.75 10 14.75H8C7.58579 14.75 7.25 14.4142 7.25 14ZM7.25 18C7.25 17.5858 7.58579 17.25 8 17.25H10C10.4142 17.25 10.75 17.5858 10.75 18C10.75 18.4142 10.4142 18.75 10 18.75H8C7.58579 18.75 7.25 18.4142 7.25 18ZM7.25 22C7.25 21.5858 7.58579 21.25 8 21.25H10C10.4142 21.25 10.75 21.5858 10.75 22C10.75 22.4142 10.4142 22.75 10 22.75H8C7.58579 22.75 7.25 22.4142 7.25 22Z"
        fill="#586379"></path>
    <path
        d="M16.75 12.5C16.75 12.0858 17.0858 11.75 17.5 11.75H22.5C22.9142 11.75 23.25 12.0858 23.25 12.5C23.25 12.9142 22.9142 13.25 22.5 13.25H17.5C17.0858 13.25 16.75 12.9142 16.75 12.5Z"
        fill="#586379"></path>
    <path
        d="M16.75 16C16.75 15.5858 17.0858 15.25 17.5 15.25H22.5C22.9142 15.25 23.25 15.5858 23.25 16C23.25 16.4142 22.9142 16.75 22.5 16.75H17.5C17.0858 16.75 16.75 16.4142 16.75 16Z"
        fill="#586379"></path>
</svg>