<svg version="1.0" xmlns="http://www.w3.org/2000/svg" width="1em" height="1em" viewBox="0 0 300.000000 282.000000">
<g transform="translate(0.000000,282.000000) scale(0.100000,-0.100000)"
fill="#000000" stroke="none">
<path d="M1340 2744 c-600 -57 -1093 -512 -1194 -1103 -21 -122 -21 -330 0
-452 72 -422 337 -775 729 -972 291 -145 665 -172 989 -70 582 183 979 777
919 1377 -7 63 -18 127 -26 143 -61 116 -224 127 -295 20 -25 -38 -27 -46 -22
-121 9 -151 3 -279 -19 -370 -111 -467 -542 -791 -1015 -763 -453 27 -827 347
-918 785 -26 125 -21 326 11 445 106 398 449 692 860 737 238 26 496 -47 692
-195 41 -30 92 -60 114 -66 138 -38 260 142 176 260 -35 48 -187 156 -296 210
-112 55 -222 92 -343 115 -84 16 -284 27 -362 20z"/>
<path d="M2420 2144 c-58 -20 -85 -46 -106 -100 -41 -108 49 -234 168 -234 38
0 107 40 134 79 91 129 -46 307 -196 255z"/>
<path d="M1836 1855 c-29 -10 -100 -74 -267 -241 l-228 -228 -114 111 c-122
119 -163 142 -234 128 -50 -9 -118 -75 -133 -128 -23 -86 -10 -107 194 -313
112 -112 198 -190 220 -199 44 -19 87 -19 129 -1 18 8 169 152 339 322 267
269 307 314 313 347 25 136 -96 248 -219 202z"/>
</g>
</svg>
