<svg version="1.0" xmlns="http://www.w3.org/2000/svg" width="1em" height="1em" viewBox="0 0 300.000000 262.000000">
<g transform="translate(0.000000,262.000000) scale(0.050000,-0.050000)"
fill="#000000" stroke="none">
<path d="M2850 5186 c-2096 -271 -3010 -2791 -1566 -4317 1299 -1372 3561
-934 4264 825 183 458 236 1256 96 1445 -116 157 -342 194 -474 78 -113 -99
-116 -113 -120 -547 -4 -554 -98 -844 -399 -1224 -1123 -1420 -3406 -619
-3400 1194 5 1395 1458 2317 2713 1721 119 -56 173 -90 433 -268 347 -237 708
204 407 497 -435 423 -1286 683 -1954 596z"/>
<path d="M4951 4016 c-295 -172 -189 -598 151 -604 230 -4 385 249 290 476
-64 153 -286 218 -441 128z"/>
<path d="M2329 3603 c-279 -170 -253 -350 101 -703 137 -137 250 -258 250
-269 0 -10 -116 -137 -258 -280 -331 -336 -362 -458 -162 -639 185 -167 309
-127 645 204 l255 252 265 -262 c214 -212 279 -265 338 -276 263 -49 475 212
369 456 -15 35 -137 172 -269 303 l-242 239 258 262 c274 280 300 325 275 481
-31 191 -278 329 -440 247 -24 -12 -159 -136 -299 -275 l-255 -252 -245 242
c-318 316 -428 366 -586 270z"/>
</g>
</svg>
