<svg width="1em" height="1em" viewBox="0 0 20 20" fill="currentColor" xmlns="http://www.w3.org/2000/svg">
<path d="M3.26004 11.602C3.94204 8.327 6.79304 6 10 6C13.207 6 16.057 8.327 16.74 11.602C16.7671 11.732 16.8447 11.8458 16.9557 11.9186C17.0667 11.9914 17.2021 12.0171 17.332 11.99C17.462 11.9629 17.5759 11.8854 17.6486 11.7744C17.7214 11.6633 17.7471 11.528 17.72 11.398C16.943 7.673 13.693 5 10 5C6.30704 5 3.05704 7.673 2.28004 11.398C2.25298 11.528 2.27867 11.6633 2.35143 11.7744C2.42419 11.8854 2.53808 11.9629 2.66804 11.99C2.79799 12.0171 2.93337 11.9914 3.04439 11.9186C3.15542 11.8458 3.23298 11.732 3.26004 11.602ZM10 8C9.07178 8 8.18154 8.36875 7.52516 9.02513C6.86879 9.6815 6.50004 10.5717 6.50004 11.5C6.50004 12.4283 6.86879 13.3185 7.52516 13.9749C8.18154 14.6313 9.07178 15 10 15C10.9283 15 11.8185 14.6313 12.4749 13.9749C13.1313 13.3185 13.5 12.4283 13.5 11.5C13.5 10.5717 13.1313 9.6815 12.4749 9.02513C11.8185 8.36875 10.9283 8 10 8ZM7.50004 11.5C7.50004 10.837 7.76343 10.2011 8.23227 9.73223C8.70111 9.26339 9.337 9 10 9C10.6631 9 11.299 9.26339 11.7678 9.73223C12.2366 10.2011 12.5 10.837 12.5 11.5C12.5 12.163 12.2366 12.7989 11.7678 13.2678C11.299 13.7366 10.6631 14 10 14C9.337 14 8.70111 13.7366 8.23227 13.2678C7.76343 12.7989 7.50004 12.163 7.50004 11.5Z" />
</svg>
