<svg width="1em" height="1em" viewBox="0 0 56 20" fill="none" xmlns="http://www.w3.org/2000/svg"><rect width="56" height="20" rx="8" fill="#00D7DF" fill-opacity="0.15"></rect><path fill-rule="evenodd" clip-rule="evenodd" d="M16.7054 5.00677C16.9674 5.80043 17.1828 6.01635 17.9748 6.27896C18.3183 6.39568 18.3183 6.86837 17.9748 6.98509C17.1828 7.2477 16.9674 7.46362 16.7054 8.25728C16.5889 8.6016 16.1173 8.6016 16.0008 8.25728C15.7388 7.46362 15.5234 7.2477 14.7314 6.98509C14.5626 6.93257 14.4752 6.78667 14.4752 6.63494C14.4752 6.48322 14.5626 6.33732 14.7314 6.27896C15.5234 6.01635 15.7388 5.80043 16.0008 5.00677C16.1173 4.66246 16.5889 4.66246 16.7054 5.00677ZM15.3312 9.48864L16.5016 9.82709V9.82126C16.8393 9.92048 17.0781 10.2356 17.0781 10.5916C17.0781 10.9476 16.8393 11.2627 16.4958 11.3619L15.3254 11.6946C14.4403 11.9513 13.759 12.6283 13.5086 13.5153L13.171 14.6883C13.072 15.0209 12.7692 15.2485 12.4023 15.2485C12.0355 15.2485 11.7327 15.0268 11.6337 14.6883L11.296 13.5153C11.0398 12.6283 10.3643 11.9455 9.47927 11.6946L8.30888 11.3561C7.97116 11.2568 7.73242 10.9417 7.73242 10.5858C7.73242 10.2298 7.97116 9.91465 8.31471 9.81543L9.48509 9.48281C10.3702 9.22603 11.0514 8.54907 11.3018 7.66204L11.6395 6.48905C11.7385 6.15058 12.0529 5.91131 12.4081 5.91131C12.7633 5.91131 13.0778 6.15058 13.1767 6.48905L13.5145 7.66787C13.7707 8.55491 14.4461 9.23769 15.3312 9.48864Z" fill="url(#paint0_linear_7846_19416)"></path><path d="M22.8608 5.77273H24.7955L27.3864 12.0966H27.4886L30.0795 5.77273H32.0142V14.5H30.4972V8.50426H30.4162L28.0043 14.4744H26.8707L24.4588 8.49148H24.3778V14.5H22.8608V5.77273ZM41.206 5.27841H42.3224C42.3224 6.08523 42.1378 6.71165 41.7685 7.15767C41.3991 7.60369 40.8295 7.8267 40.0597 7.8267V6.9233C40.4801 6.9233 40.7756 6.77841 40.946 6.48864C41.1193 6.19886 41.206 5.79545 41.206 5.27841ZM41.5341 10.1364C41.5341 11.0767 41.358 11.8821 41.0057 12.5526C40.6563 13.2202 40.179 13.7315 39.5739 14.0866C38.9716 14.4418 38.2884 14.6193 37.5241 14.6193C36.7599 14.6193 36.0753 14.4418 35.4702 14.0866C34.8679 13.7287 34.3906 13.2159 34.0384 12.5483C33.6889 11.8778 33.5142 11.0739 33.5142 10.1364C33.5142 9.19602 33.6889 8.39205 34.0384 7.72443C34.3906 7.05398 34.8679 6.54119 35.4702 6.18608C36.0753 5.83097 36.7599 5.65341 37.5241 5.65341C38.2884 5.65341 38.9716 5.83097 39.5739 6.18608C40.179 6.54119 40.6563 7.05398 41.0057 7.72443C41.358 8.39205 41.5341 9.19602 41.5341 10.1364ZM39.9446 10.1364C39.9446 9.47443 39.8409 8.91619 39.6335 8.46165C39.429 8.00426 39.1449 7.65909 38.7812 7.42614C38.4176 7.19034 37.9986 7.07244 37.5241 7.07244C37.0497 7.07244 36.6307 7.19034 36.267 7.42614C35.9034 7.65909 35.6179 8.00426 35.4105 8.46165C35.206 8.91619 35.1037 9.47443 35.1037 10.1364C35.1037 10.7983 35.206 11.358 35.4105 11.8153C35.6179 12.2699 35.9034 12.6151 36.267 12.8509C36.6307 13.0838 37.0497 13.2003 37.5241 13.2003C37.9986 13.2003 38.4176 13.0838 38.7812 12.8509C39.1449 12.6151 39.429 12.2699 39.6335 11.8153C39.8409 11.358 39.9446 10.7983 39.9446 10.1364ZM36.9318 4.91193L37.8864 2.96449H39.3949L38.0866 4.91193H36.9318ZM44.9261 5.77273V14.5H43.3452V5.77273H44.9261Z" fill="url(#paint1_linear_7846_19416)"></path><defs><linearGradient id="paint0_linear_7846_19416" x1="7.97024" y1="24.3588" x2="17.3463" y2="24.24" gradientUnits="userSpaceOnUse"><stop stop-color="#63ADE0"></stop><stop offset="0.0709872" stop-color="#595AF6"></stop><stop offset="0.244601" stop-color="#4285FB"></stop><stop offset="0.397014" stop-color="#4285FB"></stop><stop offset="1" stop-color="#3EDEB6"></stop></linearGradient><linearGradient id="paint1_linear_7846_19416" x1="34.0755" y1="4.0375" x2="31.7138" y2="17.4036" gradientUnits="userSpaceOnUse"><stop stop-color="#71B4F2"></stop><stop offset="0.46" stop-color="#419FF7"></stop><stop offset="1" stop-color="#41C35E"></stop></linearGradient></defs></svg>