<svg width="1em" height="1em" viewBox="0 0 36 36" fill="none" xmlns="http://www.w3.org/2000/svg">
  <circle cx="18" cy="18" r="18" fill="#F0F5F7"></circle>
  <circle cx="11" cy="11" r="3" fill="#586379"></circle>
  <circle cx="25" cy="25" r="3" fill="#586379"></circle>
  <path fill-rule="evenodd" clip-rule="evenodd"
    d="M16.2501 11C16.2501 10.5858 16.5859 10.25 17.0001 10.25H22.132C24.8832 10.25 25.9295 13.843 23.6084 15.3201L13.1971 21.9454C12.1421 22.6168 12.6177 24.25 13.8682 24.25H17.1894L16.9698 24.0303C16.6769 23.7374 16.6769 23.2626 16.9698 22.9697C17.2627 22.6768 17.7375 22.6768 18.0304 22.9697L19.5304 24.4697C19.8233 24.7626 19.8233 25.2374 19.5304 25.5303L18.0304 27.0303C17.7375 27.3232 17.2627 27.3232 16.9698 27.0303C16.6769 26.7374 16.6769 26.2626 16.9698 25.9697L17.1894 25.75H13.8682C11.117 25.75 10.0707 22.157 12.3918 20.6799L22.8031 14.0546C23.8581 13.3832 23.3825 11.75 22.132 11.75H17.0001C16.5859 11.75 16.2501 11.4142 16.2501 11Z"
    fill="#A2ACC0"></path>
</svg>